<mxfile host="app.diagrams.net" modified="2025-01-02T12:00:00.000Z" agent="5.0" etag="fiapx-simple" version="24.6.4" type="device">
  <diagram name="FIAP-X Architecture" id="fiapx-arch">
    <mxGraphModel dx="1422" dy="794" grid="1" gridSize="10" guides="1" tooltips="1" connect="1" arrows="1" fold="1" page="1" pageScale="1" pageWidth="1169" pageHeight="827" math="0" shadow="0">
      <root>
        <mxCell id="0" />
        <mxCell id="1" parent="0" />
        
        <!-- Title -->
        <mxCell id="title" value="FIAP-X Video Processing Platform" style="text;html=1;strokeColor=none;fillColor=none;align=center;verticalAlign=middle;whiteSpace=wrap;rounded=0;fontSize=20;fontStyle=1;" vertex="1" parent="1">
          <mxGeometry x="200" y="30" width="400" height="30" as="geometry" />
        </mxCell>
        
        <!-- User -->
        <mxCell id="user" value="User" style="shape=umlActor;verticalLabelPosition=bottom;verticalAlign=top;html=1;" vertex="1" parent="1">
          <mxGeometry x="80" y="100" width="30" height="60" as="geometry" />
        </mxCell>
        
        <!-- Frontend -->
        <mxCell id="frontend" value="Frontend&#xa;https://fiapx.wecando.click" style="rounded=1;whiteSpace=wrap;html=1;fillColor=#dae8fc;strokeColor=#6c8ebf;" vertex="1" parent="1">
          <mxGeometry x="200" y="100" width="120" height="60" as="geometry" />
        </mxCell>
        
        <!-- API Gateway -->
        <mxCell id="api-gateway" value="API Gateway&#xa;https://api.wecando.click" style="rounded=1;whiteSpace=wrap;html=1;fillColor=#e1d5e7;strokeColor=#9673a6;" vertex="1" parent="1">
          <mxGeometry x="400" y="100" width="120" height="60" as="geometry" />
        </mxCell>
        
        <!-- Auth Service -->
        <mxCell id="auth-service" value="Auth Service&#xa;Port: 8082" style="rounded=1;whiteSpace=wrap;html=1;fillColor=#d5e8d4;strokeColor=#82b366;" vertex="1" parent="1">
          <mxGeometry x="80" y="220" width="100" height="60" as="geometry" />
        </mxCell>
        
        <!-- Upload Service -->
        <mxCell id="upload-service" value="Upload Service&#xa;Port: 8080" style="rounded=1;whiteSpace=wrap;html=1;fillColor=#d5e8d4;strokeColor=#82b366;" vertex="1" parent="1">
          <mxGeometry x="200" y="220" width="100" height="60" as="geometry" />
        </mxCell>
        
        <!-- Processing Service -->
        <mxCell id="processing-service" value="Processing Service&#xa;Port: 8080" style="rounded=1;whiteSpace=wrap;html=1;fillColor=#d5e8d4;strokeColor=#82b366;" vertex="1" parent="1">
          <mxGeometry x="320" y="220" width="100" height="60" as="geometry" />
        </mxCell>
        
        <!-- Storage Service -->
        <mxCell id="storage-service" value="Storage Service&#xa;Port: 8080" style="rounded=1;whiteSpace=wrap;html=1;fillColor=#d5e8d4;strokeColor=#82b366;" vertex="1" parent="1">
          <mxGeometry x="440" y="220" width="100" height="60" as="geometry" />
        </mxCell>
        
        <!-- Notification Service -->
        <mxCell id="notification-service" value="Notification Service&#xa;Background" style="rounded=1;whiteSpace=wrap;html=1;fillColor=#d5e8d4;strokeColor=#82b366;" vertex="1" parent="1">
          <mxGeometry x="560" y="220" width="100" height="60" as="geometry" />
        </mxCell>
        
        <!-- RabbitMQ -->
        <mxCell id="rabbitmq" value="RabbitMQ&#xa;Message Queue" style="rounded=1;whiteSpace=wrap;html=1;fillColor=#fff2cc;strokeColor=#d6b656;" vertex="1" parent="1">
          <mxGeometry x="150" y="340" width="100" height="60" as="geometry" />
        </mxCell>
        
        <!-- Redis -->
        <mxCell id="redis" value="Redis Cache&#xa;Port: 6380" style="rounded=1;whiteSpace=wrap;html=1;fillColor=#fff2cc;strokeColor=#d6b656;" vertex="1" parent="1">
          <mxGeometry x="300" y="340" width="100" height="60" as="geometry" />
        </mxCell>
        
        <!-- PostgreSQL -->
        <mxCell id="postgresql" value="PostgreSQL&#xa;Database" style="rounded=1;whiteSpace=wrap;html=1;fillColor=#f8cecc;strokeColor=#b85450;" vertex="1" parent="1">
          <mxGeometry x="150" y="460" width="100" height="60" as="geometry" />
        </mxCell>
        
        <!-- MinIO -->
        <mxCell id="minio" value="MinIO&#xa;Object Storage" style="rounded=1;whiteSpace=wrap;html=1;fillColor=#f8cecc;strokeColor=#b85450;" vertex="1" parent="1">
          <mxGeometry x="300" y="460" width="100" height="60" as="geometry" />
        </mxCell>
        
        <!-- Kubernetes -->
        <mxCell id="kubernetes" value="Kubernetes&#xa;Orchestration" style="rounded=1;whiteSpace=wrap;html=1;fillColor=#e1d5e7;strokeColor=#9673a6;" vertex="1" parent="1">
          <mxGeometry x="500" y="340" width="100" height="60" as="geometry" />
        </mxCell>
        
        <!-- AWS -->
        <mxCell id="aws" value="AWS EC2&#xa;ARM64" style="rounded=1;whiteSpace=wrap;html=1;fillColor=#e1d5e7;strokeColor=#9673a6;" vertex="1" parent="1">
          <mxGeometry x="500" y="460" width="100" height="60" as="geometry" />
        </mxCell>
        
        <!-- Connections -->
        <mxCell id="conn1" style="edgeStyle=orthogonalEdgeStyle;rounded=0;orthogonalLoop=1;jettySize=auto;html=1;" edge="1" parent="1" source="user" target="frontend">
          <mxGeometry relative="1" as="geometry" />
        </mxCell>
        
        <mxCell id="conn2" style="edgeStyle=orthogonalEdgeStyle;rounded=0;orthogonalLoop=1;jettySize=auto;html=1;" edge="1" parent="1" source="frontend" target="api-gateway">
          <mxGeometry relative="1" as="geometry" />
        </mxCell>
        
        <mxCell id="conn3" style="edgeStyle=orthogonalEdgeStyle;rounded=0;orthogonalLoop=1;jettySize=auto;html=1;" edge="1" parent="1" source="api-gateway" target="auth-service">
          <mxGeometry relative="1" as="geometry" />
        </mxCell>
        
        <!-- Info Box -->
        <mxCell id="info" value="Production URLs:&#xa;Frontend: https://fiapx.wecando.click&#xa;API: https://api.wecando.click&#xa;&#xa;Tech Stack:&#xa;• Go (Backend Services)&#xa;• HTML5/CSS3/JS (Frontend)&#xa;• PostgreSQL (Database)&#xa;• MinIO (Object Storage)&#xa;• RabbitMQ (Message Queue)&#xa;• Redis (Cache)&#xa;• Kubernetes (Orchestration)&#xa;• AWS EC2 ARM64 (Infrastructure)" style="rounded=1;whiteSpace=wrap;html=1;fillColor=#f5f5f5;strokeColor=#666666;align=left;verticalAlign=top;spacingLeft=10;spacingTop=10;" vertex="1" parent="1">
          <mxGeometry x="700" y="100" width="250" height="200" as="geometry" />
        </mxCell>
        
        <!-- Features Box -->
        <mxCell id="features" value="Key Features:&#xa;• 100MB Video Upload&#xa;• Real-time Processing Queue&#xa;• Auto SSL with Let's Encrypt&#xa;• Microservices Architecture&#xa;• Event-driven Processing&#xa;• ARM64 Optimized&#xa;• Auto-scaling&#xa;• Email Notifications" style="rounded=1;whiteSpace=wrap;html=1;fillColor=#e1f5fe;strokeColor=#01579b;align=left;verticalAlign=top;spacingLeft=10;spacingTop=10;" vertex="1" parent="1">
          <mxGeometry x="700" y="320" width="250" height="150" as="geometry" />
        </mxCell>
        
      </root>
    </mxGraphModel>
  </diagram>
</mxfile>
